# xmcd
#
# Track frame offsets: 
#        150
#        25455
#        40000
#        79299
#        108728
#        128743
#        173179
#        189080
#        203786
#        229134
#        250938
#        264596
#        289523
#        301896
#
# Disc length: 4269 seconds
#
# Revision: 0
# Processed by: cddbd v1.5.2PL0 Copyright (c) Steve Scherf et al.
# Submitted via: ExactAudioCopy v0.95b3
#
DISCID=bc10ab0e
DTITLE=Tori Amos - Night Of Hunters
DYEAR=2011
DGENRE=Classical
TTITLE0=Shattering Sea
TTITLE1=Snow Blind
TTITLE2=Battle Of Trees
TTITLE3=Fearlessness
TTITLE4=Cactus Practice
TTITLE5=Star Whisperer
TTITLE6=Job's Coffin
TTITLE7=Nautical Twilight
TTITLE8=Your Ghost
TTITLE9=Edge Of The Moon
TTITLE10=The Chase
TTITLE11=Night Of Hunters
TTITLE12=Seven Sisters
TTITLE13=Carry
EXTD=
EXTT0=
EXTT1=
EXTT2=
EXTT3=
EXTT4=
EXTT5=
EXTT6=
EXTT7=
EXTT8=
EXTT9=
EXTT10=
EXTT11=
EXTT12=
EXTT13=
PLAYORDER=
